<?xml version="1.0" encoding="UTF-8"?>
<!DOCTYPE svg PUBLIC "-//W3C//DTD SVG 1.1//EN" "http://www.w3.org/Graphics/SVG/1.1/DTD/svg11.dtd">
<!-- Creator: CorelDRAW X6 -->
<svg xmlns="http://www.w3.org/2000/svg" xml:space="preserve" width="121.92mm" height="182.88mm" version="1.1" style="shape-rendering:geometricPrecision; text-rendering:geometricPrecision; image-rendering:optimizeQuality; fill-rule:evenodd; clip-rule:evenodd"
viewBox="0 0 12192 18288"
 xmlns:xlink="http://www.w3.org/1999/xlink">
 <defs>
  <style type="text/css">
   <![CDATA[
    .str1 {stroke:black;stroke-width:7.62}
    .str0 {stroke:black;stroke-width:20}
    .fil16 {fill:none}
    .fil14 {fill:black}
    .fil4 {fill:#060814}
    .fil3 {fill:#164952}
    .fil6 {fill:#18525C}
    .fil9 {fill:#333333}
    .fil1 {fill:#757575}
    .fil7 {fill:#959695}
    .fil2 {fill:#999999}
    .fil0 {fill:#BDBDBD}
    .fil8 {fill:#C1C3C2}
    .fil17 {fill:#CCCCCC}
    .fil18 {fill:#DB2323}
    .fil12 {fill:#DEBFBF}
    .fil10 {fill:#E6E6E4}
    .fil13 {fill:#F0CECE}
    .fil5 {fill:#F7D4D4}
    .fil11 {fill:#FAFAF8}
    .fil15 {fill:white}
   ]]>
  </style>
 </defs>
 <g id="Capa_x0020_1">
  <metadata id="CorelCorpID_0Corel-Layer"/>
  <path class="fil0" d="M6352 13098c-32,89 -64,177 -93,259 -29,81 -56,156 8,204 65,48 220,69 365,69 145,0 278,-22 332,-68 54,-46 27,-117 -3,-197 -30,-81 -64,-171 -98,-262 -85,-8 -170,-16 -255,-16 -85,-1 -171,6 -257,13z"/>
  <path class="fil0" d="M5204 13098c-32,89 -64,177 -93,259 -29,81 -56,156 1,206 57,51 198,78 342,78 145,0 293,-28 354,-77 61,-49 35,-120 5,-200 -30,-81 -64,-171 -98,-262 -85,-8 -170,-16 -255,-16 -85,-1 -171,6 -257,13z"/>
  <path class="fil1" d="M5193 13334c-59,19 -75,31 -88,51 -13,19 -24,46 -27,75 -3,29 1,61 17,85 16,24 43,40 80,54 38,15 86,28 153,35 67,7 154,8 223,2 70,-5 123,-17 163,-29 40,-12 66,-24 85,-37 19,-13 30,-27 37,-40 7,-14 10,-28 9,-44 0,-16 -4,-35 -8,-52 -5,-17 -11,-34 -24,-50 -13,-16 -33,-31 -93,-50 -61,-20 -163,-44 -264,-44 -102,0 -204,25 -262,44z"/>
  <path class="fil1" d="M6343 13329c-59,19 -75,31 -88,51 -13,19 -24,46 -27,75 -3,29 -1,56 14,80 16,24 45,40 83,55 38,15 103,27 170,34 67,7 141,10 211,4 70,-5 131,-14 171,-25 40,-12 59,-21 78,-34 19,-13 27,-27 34,-41 7,-14 7,-30 7,-47 0,-16 -4,-35 -8,-52 -5,-17 -11,-34 -24,-50 -13,-16 -33,-31 -93,-50 -61,-20 -163,-44 -264,-44 -102,0 -204,25 -262,44z"/>
  <path class="fil2" d="M5105 13399c9,-25 17,-37 50,-51 33,-14 91,-32 145,-42 54,-10 105,-13 156,-16 48,2 96,4 152,15 56,11 121,31 157,45 36,15 42,24 50,50 8,25 18,67 -44,60 -62,-7 -195,-63 -323,-63 -127,-1 -248,53 -305,60 -56,7 -47,-32 -39,-58z"/>
  <path class="fil2" d="M6254 13393c9,-25 17,-37 50,-51 33,-14 91,-32 145,-42 54,-10 105,-13 156,-16 48,2 96,4 152,15 56,11 121,31 157,45 36,15 42,24 50,50 8,25 18,67 -44,60 -62,-7 -195,-63 -323,-63 -127,-1 -248,53 -305,60 -56,7 -47,-32 -39,-58z"/>
  <path class="fil3" d="M5147 10378c619,6 1237,11 1856,17 30,138 61,275 57,724 -3,449 -40,1211 -78,1972 -125,23 -250,46 -371,48 -121,2 -237,-18 -354,-37 -54,-644 -109,-1287 -145,-1609 -36,-322 -53,-322 -90,-79 -37,242 -94,727 -138,1051 -44,324 -74,486 -104,648 -115,14 -229,28 -340,27 -110,-1 -216,-17 -322,-33 -14,-168 -28,-335 -47,-709 -19,-374 -44,-953 -32,-1324 12,-371 59,-533 107,-695z"/>
  <path class="fil4" d="M5119 13107c10,-471 20,-942 12,-1360 -7,-418 -32,-784 0,-973 31,-189 118,-202 277,-226 159,-24 389,-58 632,-53 243,5 499,49 651,67 153,18 202,9 226,195 25,185 25,565 31,986 7,421 20,884 33,1347 20,-470 41,-940 58,-1340 17,-400 32,-730 23,-961 -9,-232 -40,-365 -72,-498 -611,-10 -1223,-20 -1834,-30 -43,159 -86,319 -110,555 -24,236 -30,549 -14,944 15,395 51,871 87,1347z"/>
  <path class="fil5" d="M3113 7981c-57,0 -96,-1 -123,-3 -28,-2 -45,-6 -55,-14 -10,-8 -12,-19 -24,-31 -12,-12 -33,-25 -59,-31 -26,-6 -58,-6 -83,-19 -25,-13 -43,-39 -81,-69 -38,-29 -96,-61 -138,-57 -42,4 -69,43 -71,70 -1,27 23,41 47,54 24,12 49,23 63,36 13,13 15,29 2,33 -14,4 -43,-5 -105,-32 -61,-27 -155,-72 -212,-65 -57,7 -79,66 -48,106 31,40 113,60 174,76 62,15 102,25 111,32 9,7 -14,10 -79,5 -65,-5 -173,-20 -224,6 -52,26 -47,91 -12,118 35,27 101,17 164,12 63,-5 122,-3 138,0 16,4 -12,10 -40,14 -28,4 -58,7 -104,14 -46,7 -108,19 -135,52 -27,33 -18,86 14,102 32,17 87,-3 146,-17 58,-14 120,-22 154,-18 35,3 42,17 76,24 34,7 93,8 140,6 47,-2 83,-5 104,-16 21,-10 27,-28 45,-36 18,-8 47,-7 76,-6 29,1 56,1 117,0 60,-1 153,-4 265,-6 112,-2 242,-4 331,0 89,4 135,14 182,12 46,-2 92,-17 205,-27 113,-10 293,-15 473,-21 -10,-122 -21,-244 -31,-366 -183,9 -366,18 -476,18 -110,0 -148,-10 -188,-8 -39,2 -80,15 -168,24 -88,9 -224,15 -330,18 -106,4 -182,6 -239,6z"/>
  <path class="fil5" d="M9092 7981c57,0 96,-1 123,-3 28,-2 45,-6 55,-14 10,-8 12,-19 24,-31 12,-12 33,-25 59,-31 26,-6 58,-6 83,-19 25,-13 43,-39 81,-69 38,-29 96,-61 138,-57 42,4 69,43 71,70 1,27 -23,41 -47,54 -24,12 -49,23 -63,36 -13,13 -15,29 -2,33 14,4 43,-5 105,-32 61,-27 155,-72 212,-65 57,7 79,66 48,106 -31,40 -113,60 -174,76 -62,15 -102,25 -111,32 -9,7 14,10 79,5 65,-5 173,-20 224,6 52,26 47,91 12,118 -35,27 -101,17 -164,12 -63,-5 -122,-3 -138,0 -16,4 12,10 40,14 28,4 58,7 104,14 46,7 108,19 135,52 27,33 18,86 -14,102 -32,17 -87,-3 -146,-17 -58,-14 -120,-22 -154,-18 -35,3 -42,17 -76,24 -34,7 -93,8 -140,6 -47,-2 -83,-5 -104,-16 -21,-10 -27,-28 -45,-36 -18,-8 -47,-7 -76,-6 -29,1 -56,1 -117,0 -60,-1 -153,-4 -265,-6 -112,-2 -242,-4 -331,0 -89,4 -135,14 -182,12 -46,-2 -92,-17 -205,-27 -113,-10 -293,-15 -473,-21 10,-122 21,-244 31,-366 183,9 366,18 476,18 110,0 148,-10 188,-8 39,2 80,15 168,24 88,9 224,15 330,18 106,4 182,6 239,6z"/>
  <path class="fil4" d="M5664 7680c-158,-1 -258,18 -342,38 -84,19 -152,39 -236,58 -83,19 -182,36 -323,44 -142,8 -327,7 -512,7 29,212 58,423 88,635 234,98 468,196 595,241 127,45 148,36 160,58 12,22 17,75 39,119 22,44 62,79 71,141 9,62 -13,150 -38,351 -24,201 -51,515 -84,734 -33,219 -73,342 -49,404 24,62 113,62 340,78 228,16 595,48 924,41 329,-7 621,-53 767,-99 146,-46 146,-92 111,-206 -35,-115 -106,-298 -146,-490 -40,-192 -49,-393 -53,-540 -4,-146 -4,-238 18,-319 23,-81 68,-152 113,-222 100,-33 200,-66 291,-100 92,-34 176,-70 250,-102 75,-32 140,-60 205,-87 29,-212 58,-423 88,-635 -244,-2 -487,-5 -661,-24 -174,-20 -278,-56 -395,-83 -117,-27 -247,-44 -354,-41 -107,3 -191,24 -341,25 -150,0 -367,-21 -525,-22z"/>
  <path class="fil6" d="M5183 8471c30,-19 76,-30 185,-37 110,-7 284,-11 542,-11 259,0 602,4 792,16 190,12 226,34 277,78 50,44 114,111 126,201 12,90 -28,201 -66,255 -38,53 -73,48 -121,241 -48,193 -109,583 -75,779 34,196 162,199 234,225 72,26 88,75 105,131 17,55 34,116 -64,164 -98,47 -312,81 -505,100 -193,19 -365,24 -559,17 -194,-6 -411,-23 -592,-34 -181,-12 -327,-18 -392,-52 -65,-34 -51,-94 -36,-165 15,-71 29,-153 99,-193 70,-40 195,-38 217,-225 21,-187 -62,-564 -116,-758 -54,-194 -80,-206 -107,-243 -27,-36 -54,-97 -54,-170 0,-73 27,-157 48,-214 21,-56 34,-85 64,-104z"/>
  <ellipse class="fil7" transform="matrix(0.34894 -0 0.00826468 0.34894 5688.53 9341.22)" rx="468" ry="458"/>
  <path class="fil8" d="M6433 8347c0,-14 3,-23 9,-28 6,-5 14,-6 22,-3 8,3 14,10 19,19 4,8 6,18 13,53 6,35 17,94 32,154 15,60 35,120 59,183 24,62 51,127 73,175 22,48 40,78 63,118 23,40 50,89 78,118 28,29 55,38 81,41 26,3 49,-1 63,-3 14,-2 20,-4 25,-1 5,3 8,10 7,18 -2,8 -8,16 -24,20 -16,5 -40,6 -62,4 -21,-2 -39,-6 -58,-15 -18,-9 -38,-23 -58,-45 -21,-22 -43,-51 -71,-101 -28,-50 -63,-119 -93,-182 -30,-63 -57,-119 -85,-196 -28,-78 -57,-177 -73,-236 -16,-60 -20,-80 -20,-94z"/>
  <path class="fil8" d="M6832 8348c-2,-25 -1,-37 4,-43 5,-6 12,-7 19,-6 7,2 13,6 18,10 5,5 8,10 9,17 1,6 0,13 3,73 3,60 10,172 7,286 -3,114 -16,228 -32,314 -16,86 -35,143 -78,168 -43,26 -109,21 -142,12 -33,-9 -33,-21 -25,-27 8,-6 24,-7 56,-6 32,1 80,5 105,-8 26,-12 30,-41 40,-87 10,-46 26,-111 32,-215 6,-104 2,-247 -3,-337 -5,-90 -11,-128 -13,-152z"/>
  <path class="fil9" d="M5709 9170c-16,-114 -32,-227 -46,-338 -14,-111 -26,-219 -32,-317 -6,-98 -4,-185 3,-276 7,-90 21,-184 32,-261 11,-77 20,-137 35,-179 15,-42 38,-65 84,-86 46,-21 116,-39 186,-50 70,-10 140,-13 210,-14 70,-1 138,1 185,6 46,6 70,15 91,32 22,17 41,40 58,79 17,39 30,95 38,150 8,55 10,109 2,138 -9,30 -28,34 -52,44 -24,10 -52,25 -70,42 -17,17 -23,37 -25,68 -1,31 2,74 6,103 4,29 7,44 11,58 10,-5 21,-10 32,-11 11,0 22,4 33,8 -4,-21 -9,-42 -14,-68 -5,-26 -11,-57 -10,-83 2,-26 12,-49 27,-65 15,-16 36,-26 56,-32 20,-6 38,-9 61,-7 23,2 50,8 79,18 29,10 60,25 82,47 22,22 36,52 43,79 7,27 7,53 7,78 11,-2 22,-3 32,-1 10,2 20,8 29,14 -2,-34 -3,-69 -10,-95 -7,-26 -19,-45 -44,-70 -25,-25 -63,-55 -101,-76 -38,-21 -74,-32 -95,-46 -21,-14 -26,-30 -31,-68 -6,-38 -12,-98 -22,-151 -10,-52 -25,-97 -42,-127 -17,-31 -37,-48 -60,-63 -23,-15 -50,-27 -88,-33 -38,-6 -86,-4 -127,-6 -42,-1 -78,-5 -119,-7 -41,-2 -88,-2 -130,1 -42,3 -81,9 -121,16 -40,7 -82,14 -111,21 -30,7 -47,13 -66,30 -19,17 -40,44 -54,74 -14,31 -20,65 -28,116 -9,50 -20,117 -31,182 -12,65 -24,129 -30,226 -6,97 -4,226 4,336 8,110 23,201 34,292 11,91 18,182 25,272 18,16 36,33 48,32 12,-1 19,-19 26,-37z"/>
  <ellipse class="fil8" transform="matrix(0.34894 -0 0.00826468 0.34894 5686.68 9327.37)" rx="468" ry="458"/>
  <ellipse class="fil10" cx="5689" cy="9309" rx="76" ry="73"/>
  <ellipse class="fil11" cx="5689" cy="9297" rx="76" ry="73"/>
  <path class="fil12" d="M5722 7497c-1,151 4,288 56,385 52,98 151,156 213,211 63,55 90,106 117,156 32,-54 64,-108 128,-166 63,-58 158,-121 200,-214 42,-94 31,-219 22,-366 -8,-147 -14,-317 -19,-486 -233,1 -466,1 -699,2 -8,164 -16,328 -18,479z"/>
  <path class="fil13" d="M6144 4870c-94,6 -173,18 -309,53 -135,35 -326,94 -453,193 -126,98 -188,237 -216,379 -28,142 -23,287 -37,533 -14,246 -48,591 45,880 93,288 311,519 562,637 250,117 533,121 778,19 245,-102 453,-310 558,-667 105,-356 107,-861 84,-1189 -23,-328 -70,-479 -191,-590 -121,-111 -315,-182 -466,-217 -151,-35 -260,-35 -354,-29z"/>
  <path class="fil14" d="M5881 5809c42,16 79,42 68,55 -11,13 -70,12 -134,8 -64,-5 -133,-13 -173,-8 -40,6 -51,25 -65,28 -14,3 -31,-11 -32,-31 0,-20 16,-47 52,-62 36,-14 90,-16 142,-14 51,2 99,8 141,24z"/>
  <path class="fil15" d="M5933 6049c20,50 51,126 66,211 16,85 17,179 11,250 -7,71 -22,118 -50,162 -28,44 -68,83 -121,103 -52,19 -116,18 -168,-2 -52,-20 -92,-57 -119,-121 -27,-64 -42,-154 -44,-231 -2,-77 8,-141 22,-204 14,-63 32,-126 54,-173 22,-47 47,-78 72,-97 25,-19 50,-27 89,-25 39,3 92,15 124,34 32,19 42,43 63,93z"/>
  <ellipse class="fil14 str0" cx="5858" cy="6292" rx="77" ry="145"/>
  <path class="fil16 str0" d="M6102 6596c-41,84 -83,168 -78,214 5,46 56,55 90,46 34,-10 52,-38 70,-66"/>
  <path class="fil15 str1" d="M6081 7051c155,1 327,-89 391,-73 64,16 19,138 -65,210 -84,73 -208,97 -321,97 -113,0 -217,-24 -288,-98 -71,-74 -110,-198 -61,-214 50,-16 188,77 343,78z"/>
  <path class="fil17" d="M5723 7043c123,42 246,83 375,84 129,0 264,-41 398,-83 -3,12 -6,24 -15,42 -9,18 -24,43 -39,61 -15,19 -30,31 -44,44 -100,27 -199,53 -298,52 -99,-1 -198,-29 -297,-57 -9,-9 -17,-18 -28,-33 -11,-15 -23,-35 -31,-52 -9,-17 -13,-31 -16,-40 -3,-9 -4,-14 -5,-19z"/>
  <path class="fil18" d="M6227 7231c-15,-13 -31,-26 -56,-37 -25,-11 -58,-21 -90,-22 -32,-1 -62,6 -85,15 -23,10 -40,23 -56,36 44,9 87,18 135,19 48,1 100,-5 152,-12z"/>
  <path class="fil14" d="M6378 5809c-42,16 -79,42 -68,55 11,13 70,12 134,8 64,-5 133,-13 173,-8 40,6 51,25 65,28 14,3 31,-11 32,-31 0,-20 -16,-47 -52,-62 -36,-14 -90,-16 -142,-14 -51,2 -99,8 -141,24z"/>
  <path class="fil15" d="M6351 6049c-20,50 -51,126 -66,211 -16,85 -17,179 -11,250 7,71 22,118 50,162 28,44 68,83 121,103 52,19 116,18 168,-2 52,-20 92,-57 119,-121 27,-64 42,-154 44,-231 2,-77 -8,-141 -22,-204 -14,-63 -32,-126 -54,-173 -22,-47 -47,-78 -72,-97 -25,-19 -50,-27 -89,-25 -39,3 -92,15 -124,34 -32,19 -42,43 -63,93z"/>
  <ellipse class="fil14 str0" cx="6412" cy="6289" rx="77" ry="145"/>
  <path class="fil14" d="M5328 7207c59,70 118,140 182,194 64,54 133,92 201,130 -48,0 -95,0 -134,-9 -39,-9 -68,-26 -126,-14 -58,11 -144,52 -211,41 -66,-11 -112,-72 -163,-70 -50,2 -106,67 -179,71 -73,4 -165,-55 -203,-112 -37,-57 -21,-113 -19,-175 2,-62 -11,-129 -3,-188 9,-59 39,-110 47,-178 8,-68 -7,-153 -1,-232 6,-79 33,-153 42,-212 10,-59 3,-104 17,-167 14,-63 51,-145 43,-219 -8,-74 -59,-139 -57,-209 2,-71 56,-146 97,-254 41,-108 67,-247 107,-333 40,-86 93,-117 139,-144 47,-26 87,-48 146,-107 59,-59 137,-156 215,-198 78,-41 158,-27 237,-30 79,-3 159,-22 250,-19 91,3 193,27 269,24 76,-4 125,-35 266,5 141,41 374,153 525,241 151,87 220,149 260,236 41,87 53,200 79,284 26,84 67,138 83,234 16,96 7,232 31,384 24,151 80,317 79,443 -1,126 -60,213 -70,289 -10,76 30,141 44,199 14,58 4,109 13,169 9,60 37,129 -7,163 -44,34 -161,34 -228,26 -67,-9 -85,-26 -125,-21 -40,6 -104,35 -160,41 -56,6 -104,-12 -173,-11 -68,1 -157,20 -245,39 64,-40 129,-81 186,-135 57,-55 106,-124 144,-184 37,-60 63,-109 91,-183 28,-74 57,-173 80,-278 22,-105 37,-216 47,-323 10,-107 14,-211 16,-312 1,-101 -1,-200 -29,-287 -28,-87 -83,-163 -119,-184 -36,-22 -55,11 -103,-5 -48,-16 -127,-80 -230,-88 -103,-8 -230,40 -346,33 -116,-7 -220,-68 -306,-79 -86,-11 -155,27 -221,45 -66,18 -130,17 -195,1 -66,-16 -134,-46 -182,-15 -48,31 -75,123 -119,160 -45,37 -107,19 -140,54 -33,35 -37,122 -42,234 -5,112 -12,248 -15,361 -2,114 0,204 11,296 10,92 28,185 63,281 35,97 86,197 138,297z"/>
 </g>
</svg>
