<?xml version="1.0" encoding="UTF-8"?>
<!DOCTYPE svg PUBLIC "-//W3C//DTD SVG 1.1//EN" "http://www.w3.org/Graphics/SVG/1.1/DTD/svg11.dtd">
<!-- Creator: CorelDRAW X6 -->
<svg xmlns="http://www.w3.org/2000/svg" xml:space="preserve" width="121.92mm" height="182.88mm" version="1.1" style="shape-rendering:geometricPrecision; text-rendering:geometricPrecision; image-rendering:optimizeQuality; fill-rule:evenodd; clip-rule:evenodd"
viewBox="0 0 12192 18288"
 xmlns:xlink="http://www.w3.org/1999/xlink">
 <defs>
  <style type="text/css">
   <![CDATA[
    .str1 {stroke:black;stroke-width:7.62}
    .str0 {stroke:black;stroke-width:20}
    .fil2 {fill:black}
    .fil9 {fill:#060814}
    .fil8 {fill:#164952}
    .fil12 {fill:#18525C}
    .fil13 {fill:#757575}
    .fil14 {fill:#999999}
    .fil7 {fill:#BDBDBD}
    .fil5 {fill:#CCCCCC}
    .fil6 {fill:#DB2323}
    .fil0 {fill:#DEBFBF}
    .fil10 {fill:#EDCCCC}
    .fil1 {fill:#F0CECE}
    .fil4 {fill:#F2F2F2}
    .fil11 {fill:#FFDBDB}
    .fil3 {fill:white}
   ]]>
  </style>
 </defs>
 <g id="Capa_x0020_1">
  <metadata id="CorelCorpID_0Corel-Layer"/>
  <path class="fil0" d="M5366 8251c96,-54 192,-109 287,-167 95,-58 190,-121 232,-215 42,-94 31,-219 22,-366 -8,-147 -14,-317 -19,-486 -174,0 -348,1 -522,1 0,411 0,822 0,1233z"/>
  <path class="fil1" d="M5677 4870c-94,6 -173,18 -309,53 -135,35 -326,94 -453,193 -126,98 -188,237 -216,379 -28,142 -23,287 -27,427 -4,139 -17,272 -34,352 -17,80 -38,107 -58,154 -19,47 -37,115 -24,135 13,20 56,-6 65,53 9,59 -16,204 81,392 97,188 316,419 566,536 250,117 533,121 778,19 245,-102 453,-310 558,-667 105,-356 107,-861 84,-1189 -23,-328 -70,-479 -191,-590 -121,-111 -315,-182 -466,-217 -151,-35 -260,-35 -354,-29z"/>
  <path class="fil2" d="M4848 5809c-24,16 -45,42 -38,55 6,13 39,12 75,8 36,-5 75,-13 97,-8 22,6 29,25 37,28 8,3 18,-11 18,-31 0,-20 -9,-47 -29,-62 -20,-14 -51,-16 -80,-14 -29,2 -56,8 -80,24z"/>
  <path class="fil3" d="M4833 6049c-11,50 -28,126 -37,211 -9,85 -10,179 -6,250 4,71 12,118 28,162 16,44 38,83 68,103 29,19 65,18 95,-2 29,-20 52,-57 67,-121 15,-64 24,-154 25,-231 1,-77 -5,-141 -13,-204 -8,-63 -18,-126 -31,-173 -12,-47 -27,-78 -41,-97 -14,-19 -28,-27 -50,-25 -22,3 -52,15 -70,34 -18,19 -24,43 -35,93z"/>
  <ellipse class="fil2 str0" cx="4868" cy="6289" rx="43" ry="145"/>
  <path class="fil4 str1" d="M4913 6970c42,-1 57,39 66,70 9,31 13,55 16,85 3,30 4,66 -11,93 -15,27 -45,46 -75,65 -44,-42 -87,-84 -117,-122 -30,-39 -45,-74 -61,-109 70,-40 139,-81 181,-81z"/>
  <path class="fil5" d="M4761 7104c23,-9 45,-19 73,-31 27,-13 60,-28 81,-41 21,-13 32,-23 42,-33 4,5 7,11 13,25 5,15 12,38 17,64 4,26 6,55 6,73 -1,19 -4,28 -7,37 -4,2 -8,3 -28,10 -20,7 -55,18 -90,30 -26,-27 -52,-54 -70,-76 -18,-22 -27,-40 -37,-57z"/>
  <path class="fil6" d="M4884 7231c23,-8 47,-15 63,-20 16,-5 24,-8 29,-9 5,-2 8,-3 10,-4 1,-3 2,-5 3,-8 1,-3 2,-7 2,-10 1,-3 1,-5 1,-7 -2,0 -5,0 -12,1 -7,1 -20,4 -29,7 -9,3 -15,6 -24,10 -9,4 -20,10 -28,17 -8,7 -12,15 -16,23z"/>
  <path class="fil2" d="M4594 5489c-66,-58 -42,-164 -4,-234 38,-69 91,-101 138,-127 47,-26 87,-48 146,-107 59,-59 137,-156 215,-198 78,-41 158,-27 237,-30 79,-3 159,-22 250,-19 91,3 193,27 269,24 76,-4 125,-35 266,5 141,41 374,153 525,241 151,87 220,149 260,236 41,87 53,200 79,284 26,84 67,138 83,234 16,96 7,232 31,384 24,151 80,317 79,443 -1,126 -60,213 -70,289 -10,76 30,141 44,199 14,58 4,109 13,169 9,60 37,129 -7,163 -44,34 -161,34 -228,26 -67,-9 -85,-26 -125,-21 -40,6 -104,35 -160,41 -56,6 -104,-12 -173,-11 -68,1 -157,20 -245,39 -148,1 -297,2 -414,-36 -117,-39 -204,-117 -229,-229 -25,-112 12,-256 4,-331 -8,-75 -61,-80 -62,-168 -1,-87 50,-257 43,-363 -7,-107 -72,-151 -105,-279 -33,-128 -32,-341 -64,-449 -32,-107 -95,-109 -161,-125 -66,-16 -134,-46 -178,-44 -44,2 -63,36 -151,48 -88,12 -243,3 -309,-55z"/>
  <path class="fil7" d="M5396 13076c2,64 3,128 -51,164 -54,36 -164,45 -265,45 -101,0 -193,-8 -265,-9 -72,-1 -124,4 -142,36 -18,32 -2,91 23,134 25,42 60,68 110,84 50,16 114,23 264,38 149,15 383,39 551,38 168,0 270,-25 307,-117 37,-92 8,-250 -21,-409 -85,-8 -170,-16 -255,-16 -85,-1 -171,6 -257,13z"/>
  <path class="fil8" d="M5800 10279c108,12 226,16 307,121 80,106 123,314 78,503 -45,189 -177,359 -234,551 -56,192 -37,407 -11,689 26,282 57,631 89,980 -131,5 -262,10 -377,9 -115,-2 -213,-10 -312,-19 -7,-311 -14,-621 -49,-926 -35,-305 -99,-605 -129,-885 -30,-280 -26,-539 35,-715 61,-176 180,-270 289,-306 108,-36 206,-15 314,-2z"/>
  <path class="fil9" d="M5213 8239c-127,123 -254,246 -299,353 -45,107 -7,197 29,287 36,90 69,181 93,440 24,259 38,687 61,934 23,247 55,314 240,353 185,39 524,49 681,8 157,-41 132,-134 109,-517 -23,-383 -43,-1055 -46,-1495 -3,-440 13,-646 -33,-750 -46,-104 -154,-104 -303,-23 -149,81 -341,245 -532,408z"/>
  <path class="fil9" d="M5726 8063c-41,-3 -116,-3 -157,1 -40,3 -46,10 -57,24 -11,14 -28,36 -37,67 -10,32 -13,74 -11,128 1,54 7,119 17,157 10,38 24,49 35,58 11,8 19,14 59,17 40,3 113,3 153,0 40,-3 47,-9 57,-17 9,-8 20,-20 30,-54 10,-34 18,-90 20,-144 1,-54 -4,-104 -14,-141 -10,-37 -24,-60 -34,-74 -11,-14 -18,-20 -60,-22z"/>
  <path class="fil10" d="M5583 8084c7,-24 35,-24 62,-24 27,0 52,0 61,23 9,23 0,68 0,109 0,41 8,78 7,114 -1,37 -13,73 -14,103 -1,30 7,52 10,74 3,22 1,44 -11,55 -11,11 -32,12 -53,11 -21,-1 -44,-4 -51,-26 -7,-23 2,-65 2,-104 0,-40 -8,-76 -8,-111 0,-35 8,-69 6,-110 -3,-41 -17,-89 -10,-113z"/>
  <circle class="fil11" cx="5646" cy="7988" r="63"/>
  <ellipse class="fil11" cx="5646" cy="8094" rx="68" ry="65"/>
  <ellipse class="fil11" cx="5646" cy="8314" rx="63" ry="69"/>
  <ellipse class="fil11" cx="5650" cy="8501" rx="55" ry="59"/>
  <path class="fil12" d="M4935 8552c18,-31 43,-64 72,-90 29,-26 63,-45 105,-56 42,-10 90,-12 135,-3 44,9 84,30 118,60 34,30 61,71 75,126 13,55 13,125 6,171 -7,47 -20,70 -38,148 -18,78 -41,209 -60,328 -19,119 -33,225 -45,306 -12,81 -23,138 -25,242 -2,104 4,255 150,349 146,93 431,129 717,164 11,101 22,203 -13,258 -34,55 -114,65 -193,75 -276,11 -552,22 -693,-48 -141,-69 -146,-219 -153,-356 -7,-138 -15,-264 -23,-399 -8,-135 -17,-280 -24,-381 -7,-101 -13,-159 -18,-208 -5,-49 -10,-90 -18,-137 -9,-47 -22,-100 -42,-158 -20,-58 -48,-120 -62,-171 -14,-51 -14,-91 -8,-125 6,-35 19,-64 37,-95z"/>
  <path class="fil13" d="M4794 13306c-59,19 -75,31 -88,51 -13,19 -38,25 -41,54 -3,29 13,77 28,101 16,24 45,40 83,55 38,15 103,27 170,34 67,7 141,10 211,4 215,-17 378,10 566,-5 176,-14 187,-59 192,-85 11,-56 -289,19 -505,-36 -93,-24 -115,-151 -182,-185 -56,-29 -128,-17 -173,-18 -102,-3 -201,12 -260,31z"/>
  <path class="fil14" d="M4717 13269c30,-7 78,-3 122,-3 44,0 84,-2 124,-5 38,2 75,4 118,7 42,3 89,6 119,13 30,7 44,18 0,24 -44,6 -145,7 -244,35 -99,28 -194,82 -242,81 -48,-1 -48,-56 -43,-92 5,-36 17,-53 46,-60z"/>
 </g>
</svg>
